<svg width="1366" height="200" viewBox="0 0 1366 200" fill="#eee1be" xmlns="http://www.w3.org/2000/svg"><path fill="#f9d8a4" d="M0 0h1366v200H0z"/><g opacity=".3"><g opacity=".3" filter="url(#a)" transform="matrix(.96593 .25882 -.5119 .85905 1123.39 200)"><circle r="104.859" fill="#ffffff"/><circle r="104.359" stroke="url(#b)" stroke-opacity=".5"/></g><g opacity=".6" filter="url(#c)"><rect width="338.4" height="253.022" rx="6.6" transform="matrix(.96245 .27144 -.50483 .86322 664.732 44)" fill="#eee1be"/><rect x=".229" y=".567" width="337.4" height="252.022" rx="6.1" transform="matrix(.96245 .27144 -.50483 .86322 665.027 44.016)" stroke="url(#d)" stroke-opacity=".3"/></g><g filter="url(#e)"><rect width="350" height="254" rx="6" transform="matrix(.96593 .25882 -.5119 .85905 795.02 6)" fill="#eee1be"/><rect x=".227" y=".559" width="349" height="253" rx="5.5" transform="matrix(.96593 .25882 -.5119 .85905 795.313 6.02)" stroke="#eee1be" stroke-opacity=".05"/></g><rect width="124" height="172" rx="6" transform="matrix(.96593 .25882 -.5119 .85905 785.045 53)" fill="#27ba9b" fill-opacity=".4" filter="url(#f)"/><path fill-rule="evenodd" clip-rule="evenodd" d="M812.127 115.386a.624.624 0 0 0-.66.268l-3.764 6.317c-.126.212-.035.435.203.499l3.127.838a.624.624 0 0 0 .66-.268l3.764-6.317c.126-.212.036-.436-.203-.499l-3.127-.838zm-28.498 3.486c-.258.104-.402.347-.323.543l2.361 5.812c.079.195.352.268.61.163l3.383-1.373c.257-.105.402-.348.323-.543l-2.361-5.813c-.079-.195-.352-.268-.61-.163l-3.383 1.374zm-18.742 15.791a.626.626 0 0 0-.66.269l-1.657 2.781c-.127.212-.036.435.202.499l7.103 1.903a.624.624 0 0 0 .66-.268l1.657-2.781c.127-.212.036-.435-.202-.499l-7.103-1.904zm57.887 15.38a.624.624 0 0 0-.66.268l-1.657 2.781c-.127.212-.036.436.203.499l7.102 1.904a.626.626 0 0 0 .661-.269l1.657-2.78c.126-.212.035-.436-.203-.5l-7.103-1.903zm.303-17.793c-.258.104-.402.347-.323.543l1.039 2.558c.079.195.353.269.61.164l7.684-3.121c.258-.105.403-.348.324-.543l-1.039-2.559c-.08-.195-.353-.268-.611-.163l-7.684 3.121zm-46.749 7.69c5.833-9.79 19.485-15.34 30.493-12.39 11.015 2.951 15.205 13.282 9.378 23.073-5.833 9.79-19.493 15.338-30.501 12.389-11.008-2.95-15.204-13.282-9.37-23.072zm-6.611 24.984c-.476-.128-1.068.112-1.32.536l-1.2 2.013c-.253.424-.071.872.406.999l25.581 6.855c.477.128 1.068-.113 1.321-.536l1.199-2.014c.253-.424.071-.871-.406-.999l-25.581-6.854zm-2.219 9.998c.252-.424.844-.664 1.32-.536l17.41 4.665c.477.128.659.575.406.999l-1.2 2.013c-.252.424-.843.664-1.32.537l-17.41-4.666c-.477-.127-.659-.574-.406-.998l1.2-2.014z" fill="#27ba9b" fill-opacity=".4" filter="url(#g)"/><g filter="url(#h)"><rect width="184" height="172" rx="6" transform="matrix(.96593 .25882 -.5119 .85905 915.445 87.94)" fill="#27ba9b" fill-opacity=".2"/><rect x=".227" y=".559" width="183" height="171" rx="5.5" transform="matrix(.96593 .25882 -.5119 .85905 915.739 87.96)" stroke="#fff" stroke-opacity=".05"/></g>
<g opacity=".1" filter="url(#i)">
	<rect width="39.514" height="39.514" rx="6" transform="matrix(.96593 .25882 -.5119 .85905 950.592 144.619)" fill="#27ba9b" fill-opacity=".5"/>
	
	<rect x=".227" y=".559" width="38.514" height="38.514" rx="5.5" transform="matrix(.96593 .25882 -.5119 .85905 950.886 144.639)" stroke="#27ba9b" stroke-opacity=".5"/>
</g>
	<g opacity=".3" filter="url(#j)"><rect width="39.514" height="39.514" rx="6" transform="matrix(.96593 .25882 -.5119 .85905 881.893 172.522)" fill="#4CAEFF" fill-opacity=".5"/><rect x=".227" y=".559" width="38.514" height="38.514" rx="5.5" transform="matrix(.96593 .25882 -.5119 .85905 882.186 172.542)" stroke="#27ba9b" stroke-opacity=".05"/></g><g opacity=".3" filter="url(#k)"><rect width="39.514" height="39.514" rx="6" transform="matrix(.96593 .25882 -.5119 .85905 926.775 184.502)" fill="#4CAEFF" fill-opacity=".5"/><rect x=".227" y=".559" width="38.514" height="38.514" rx="5.5" transform="matrix(.96593 .25882 -.5119 .85905 927.069 184.522)" stroke="#fff" stroke-opacity=".05"/></g><g filter="url(#l)"><rect width="39.514" height="39.514" rx="6" transform="matrix(.96593 .25882 -.5119 .85905 906.521 132.811)" fill="#4CAEFF" fill-opacity=".5"/><rect x=".227" y=".559" width="38.514" height="38.514" rx="5.5" transform="matrix(.96593 .25882 -.5119 .85905 906.815 132.831)" stroke="#27ba9b" stroke-opacity=".6"/></g><path fill-rule="evenodd" clip-rule="evenodd" d="M920.096 146.533c2.941.788 4.593 2.531 5.074 4.763.273 1.267.166 2.672-.268 4.132.649.398.836 1.174.394 1.916l-1.935 3.247c-.402.674-1.208 1.128-2.012 1.198-2.3 1.697-5.314 2.581-8.09 2.267-.415.644-1.328 1.003-2.066.805-.757-.202-1.045-.912-.644-1.584.401-.672 1.338-1.053 2.095-.851.301.081.528.242.667.45 2.221.363 4.668-.219 6.635-1.458-.519-.421-.64-1.127-.236-1.805l1.935-3.247c.271-.454.725-.809 1.239-1.013.376-1.258.458-2.433.238-3.455-.376-1.745-1.64-3.101-3.998-3.733-2.359-.632-4.668-.233-6.734.858-1.211.639-2.358 1.528-3.38 2.615.162.384.126.851-.144 1.304l-1.935 3.247c-.534.896-1.784 1.404-2.792 1.134-1.008-.27-1.393-1.216-.858-2.112l1.934-3.247c.443-.743 1.377-1.219 2.258-1.207 1.186-1.258 2.552-2.325 4.051-3.117 2.643-1.395 5.632-1.895 8.572-1.107zm-2.966 10.506c-1.127.767-2.725 1.121-3.792.835-1.068-.286-1.891-1.289-1.919-2.365l-1.02.192c-.099 1.383.884 2.595 2.439 3.012 1.555.416 3.512-.008 4.862-1.056l-.57-.618z" fill="#27ba9b" filter="url(#m)"/><rect width="319" height="19" rx="9.5" transform="matrix(.96593 .25882 -.5119 .85905 800.725 24)" fill="#27ba9b" fill-opacity=".5"/><path fill-rule="evenodd" clip-rule="evenodd" d="M807.895 34.839c.787-1.321 2.63-2.07 4.116-1.672 1.485.398 2.051 1.792 1.264 3.113-.787 1.322-2.63 2.07-4.115 1.672-1.486-.398-2.052-1.792-1.265-3.113zm4.713-2.674c-2.108-.565-4.723.497-5.84 2.372s-.314 3.852 1.794 4.417c.852.228 1.787.191 2.672-.058l.928 2.286c.104.255.461.35.797.214.337-.137.526-.454.423-.709l-.929-2.287c.805-.438 1.499-1.062 1.949-1.818 1.117-1.874.314-3.852-1.794-4.417z" fill="#fff" fill-opacity=".3" filter="url(#n)"/><g filter="url(#o)"><rect width="90" height="126" rx="5.4" transform="matrix(.96593 .25882 -.5119 .85905 1087.5 34.233)" fill="#66B9FF" fill-opacity=".3"/><rect x=".227" y=".559" width="89" height="125" rx="4.9" transform="matrix(.96593 .25882 -.5119 .85905 1087.79 34.253)" stroke="#fff" stroke-opacity=".6"/></g><g filter="url(#p)"><mask id="q" fill="#fff"><path fill-rule="evenodd" clip-rule="evenodd" d="M1166.18 89.633c2.14.572 4.75-.522 5.84-2.443l1.16-2.042 3.44-1.439c.28-.12.44-.395.35-.615l-1.12-2.658 1.13-1.98c1.09-1.92.24-3.942-1.89-4.513l-69.55-18.635c-2.13-.572-4.75.522-5.84 2.443l-4.95 8.733c-1.09 1.922-.25 3.943 1.89 4.515l69.54 18.634z"/></mask><path fill-rule="evenodd" clip-rule="evenodd" d="M1166.18 89.633c2.14.572 4.75-.522 5.84-2.443l1.16-2.042 3.44-1.439c.28-.12.44-.395.35-.615l-1.12-2.658 1.13-1.98c1.09-1.92.24-3.942-1.89-4.513l-69.55-18.635c-2.13-.572-4.75.522-5.84 2.443l-4.95 8.733c-1.09 1.922-.25 3.943 1.89 4.515l69.54 18.634z" fill="#27ba9b" fill-opacity=".5"/><path d="M1166.18 89.633l.25-.434-.25.434zm7-4.485l-.17-.4-.21.09-.1.18.48.13zm3.44-1.439l-.17-.399.17.399zm.35-.615l-.52.216.52-.216zm-1.12-2.658l-.48-.13-.1.18.07.166.51-.216zm1.13-1.98l-.49-.129.49.13zm-77.28-20.705l.49.13-.49-.13zm-4.95 8.733l-.48-.13.48.13zm1.89 4.515l-.25.434.25-.434zm74.9 16.061c-.95 1.681-3.24 2.639-5.11 2.139l-.49.87c2.4.642 5.34-.588 6.57-2.75l-.97-.259zm1.16-2.041l-1.16 2.041.97.26 1.15-2.043-.96-.258zm3.75-1.709l-3.44 1.439.34.798 3.44-1.439-.34-.798zm0 0l.34.798c.57-.239.88-.79.69-1.23l-1.03.432zm-1.11-2.658l1.11 2.658 1.03-.432-1.11-2.658-1.03.432zm1.15-2.325l-1.12 1.98.97.258 1.12-1.979-.97-.258zm-1.65-3.95c1.87.5 2.61 2.27 1.65 3.95l.97.26c1.23-2.162.27-4.436-2.13-5.08l-.49.87zm-69.55-18.634l69.55 18.634.49-.87-69.54-18.634-.5.87zm-5.1 2.138c.95-1.681 3.24-2.639 5.1-2.139l.5-.87c-2.4-.642-5.34.588-6.57 2.75l.97.259zm-4.96 8.733l4.96-8.733-.97-.259-4.95 8.733.96.259zm1.65 3.95c-1.86-.5-2.6-2.27-1.65-3.95l-.96-.26c-1.23 2.162-.28 4.436 2.12 5.08l.49-.87zm69.55 18.635l-69.55-18.635-.49.87 69.55 18.634.49-.87z" fill="#fff" fill-opacity=".05" mask="url(#q)"/></g><g filter="url(#r)"><mask id="s" fill="#fff"><path fill-rule="evenodd" clip-rule="evenodd" d="M1063.33 101.515c-2.14-.571-2.98-2.593-1.89-4.514l1.14-2.006-1.12-2.658c-.09-.22.07-.496.35-.615l3.44-1.44 1.1-1.945c1.09-1.921 3.71-3.015 5.84-2.444l50.23 13.459c2.13.572 2.98 2.593 1.89 4.514l-4.92 8.664c-1.09 1.922-3.7 3.016-5.83 2.444l-50.23-13.459z"/></mask><path fill-rule="evenodd" clip-rule="evenodd" d="M1063.33 101.515c-2.14-.571-2.98-2.593-1.89-4.514l1.14-2.006-1.12-2.658c-.09-.22.07-.496.35-.615l3.44-1.44 1.1-1.945c1.09-1.921 3.71-3.015 5.84-2.444l50.23 13.459c2.13.572 2.98 2.593 1.89 4.514l-4.92 8.664c-1.09 1.922-3.7 3.016-5.83 2.444l-50.23-13.459z" fill="#27ba9b" fill-opacity=".5"/><path d="M1062.58 94.995l.51-.216.07.165-.1.18-.48-.13zm-1.12-2.658l.52-.216-.52.216zm.35-.615l.17.399-.17-.4zm3.44-1.44l.48.13-.1.18-.21.09-.17-.4zm59.06 13.584l.48.13-.48-.13zm-4.92 8.664l-.48-.129.48.129zm-57.47-15.4c-.95 1.682-.21 3.45 1.65 3.95l-.49.87c-2.4-.643-3.35-2.917-2.13-5.078l.97.258zm1.14-2.006l-1.14 2.006-.97-.258 1.14-2.007.97.26zm-1.08-3.003l1.11 2.658-1.03.432-1.11-2.658 1.03-.432zm0 0l-1.03.432c-.19-.441.12-.992.69-1.23l.34.798zm3.44-1.44l-3.44 1.44-.34-.798 3.44-1.44.34.799zm1.42-2.215l-1.11 1.946-.96-.259 1.1-1.945.97.258zm5.1-2.138c-1.86-.5-4.15.457-5.1 2.138l-.97-.258c1.23-2.162 4.17-3.393 6.57-2.75l-.5.87zm50.23 13.459l-50.23-13.459.5-.87 50.23 13.459-.5.87zm1.66 3.95c.95-1.681.21-3.45-1.66-3.95l.5-.87c2.4.643 3.35 2.917 2.12 5.079l-.96-.259zm-4.92 8.664l4.92-8.664.96.259-4.91 8.664-.97-.259zm-5.11 2.138c1.87.5 4.16-.457 5.11-2.138l.97.259c-1.23 2.161-4.17 3.392-6.57 2.749l.49-.87zm-50.23-13.459l50.23 13.459-.49.87-50.23-13.459.49-.87z" fill="#fff" fill-opacity=".05" mask="url(#s)"/></g><g opacity=".5" filter="url(#t)"><rect width="130" height="170" rx="6.6" transform="matrix(.96245 .27144 -.50483 .86322 157.365 115.983)" fill="#0E89EF"/><rect x=".229" y=".567" width="129" height="169" rx="6.1" transform="matrix(.96245 .27144 -.50483 .86322 157.66 115.998)" stroke="url(#u)" stroke-opacity=".3"/></g><g filter="url(#v)"><rect width="130" height="170" rx="6" transform="matrix(.96245 .27144 -.50483 .86322 271.129 79)" fill="#1996FF" fill-opacity=".3"/><rect x=".229" y=".567" width="129" height="169" rx="5.5" transform="matrix(.96245 .27144 -.50483 .86322 271.424 79.016)" stroke="#fff" stroke-opacity=".05"/></g><g filter="url(#w)"><path d="M159.774 241.376l113.57 32.03c3.189.899 7.131-.69 8.804-3.551l66.899-114.392-12.981-35.319-90.471-25.515c-3.189-.9-7.131.69-8.804 3.55l-79.763 136.389c-1.672 2.86-.443 5.908 2.746 6.808z" fill="#66B9FF" fill-opacity=".3"/><path d="M273.596 272.974l-113.569-32.03c-2.924-.824-4.051-3.618-2.517-6.24l79.763-136.389c1.533-2.622 5.146-4.08 8.07-3.255l90.264 25.458 12.857 34.982-66.798 114.22c-1.533 2.622-5.146 4.079-8.07 3.254z" stroke="#fff" stroke-opacity=".1"/></g><path d="M335.561 121.007l-14.64 25.034c-.558.953-.148 1.969.915 2.269l25.986 7.329" stroke="#fff" stroke-opacity=".15" filter="url(#x)"/><path fill-rule="evenodd" clip-rule="evenodd" d="M232.676 149.31l76.996 21.715-4.038 6.906-76.997-21.715 4.039-6.906zm-10.097 17.264l76.997 21.715-4.039 6.906-76.996-21.715 4.038-6.906zm18.777 25.408l-28.873-8.143-4.039 6.905 28.874 8.144 4.038-6.906z" fill="#27ba9b" opacity=".4" filter="url(#y)"/><g opacity=".5" filter="url(#z)"><rect width="141.549" height="153.861" rx="6.6" transform="matrix(.96245 .27144 -.50483 .86322 423.674 -85)" fill="#0E89EF"/><rect x=".229" y=".567" width="140.549" height="152.861" rx="6.1" transform="matrix(.96245 .27144 -.50483 .86322 423.969 -84.984)" stroke="url(#A)" stroke-opacity=".3"/></g><g opacity=".9" filter="url(#B)"><rect width="141.549" height="153.861" rx="6.6" transform="matrix(.96245 .27144 -.50483 .86322 324.674 -132)" fill="#0E89EF"/><rect x=".229" y=".567" width="140.549" height="152.861" rx="6.1" transform="matrix(.96245 .27144 -.50483 .86322 324.969 -131.985)" stroke="url(#C)" stroke-opacity=".5"/></g></g><defs><filter id="a" x="993.738" y="100.896" width="249.306" height="208.207" filterUnits="userSpaceOnUse" color-interpolation-filters="sRGB"><feFlood flood-opacity="0" result="BackgroundImageFix"/><feGaussianBlur in="BackgroundImage" stdDeviation="2.5"/><feComposite in2="SourceAlpha" operator="in" result="effect1_backgroundBlur"/><feColorMatrix in="SourceAlpha" values="0 0 0 0 0 0 0 0 0 0 0 0 0 0 0 0 0 0 127 0"/><feOffset dx="-5" dy="5"/><feGaussianBlur stdDeviation="5"/><feColorMatrix values="0 0 0 0 0 0 0 0 0 0.435294 0 0 0 0 0.8 0 0 0 0.2 0"/><feBlend in2="effect1_backgroundBlur" result="effect2_dropShadow"/><feBlend in="SourceGraphic" in2="effect2_dropShadow" result="shape"/></filter><filter id="c" x="524.51" y="40.515" width="468.408" height="327.239" filterUnits="userSpaceOnUse" color-interpolation-filters="sRGB"><feFlood flood-opacity="0" result="BackgroundImageFix"/><feColorMatrix in="SourceAlpha" values="0 0 0 0 0 0 0 0 0 0 0 0 0 0 0 0 0 0 127 0"/><feOffset dx="-5" dy="5"/><feGaussianBlur stdDeviation="5"/><feColorMatrix values="0 0 0 0 0 0 0 0 0 0.435294 0 0 0 0 0.8 0 0 0 0.2 0"/><feBlend in2="BackgroundImageFix" result="effect1_dropShadow"/><feBlend in="SourceGraphic" in2="effect1_dropShadow" result="shape"/></filter><filter id="e" x="637.305" y="-2.677" width="503.482" height="346.14" filterUnits="userSpaceOnUse" color-interpolation-filters="sRGB"><feFlood flood-opacity="0" result="BackgroundImageFix"/><feColorMatrix in="SourceAlpha" values="0 0 0 0 0 0 0 0 0 0 0 0 0 0 0 0 0 0 127 0"/><feOffset dx="-10" dy="10"/><feGaussianBlur stdDeviation="10"/><feColorMatrix values="0 0 0 0 0 0 0 0 0 0.490196 0 0 0 0 0.898039 0 0 0 0.3 0"/><feBlend in2="BackgroundImageFix" result="effect1_dropShadow"/><feBlend in="SourceGraphic" in2="effect1_dropShadow" result="shape"/></filter><filter id="f" x="693.307" y="52.323" width="211.207" height="185.205" filterUnits="userSpaceOnUse" color-interpolation-filters="sRGB"><feFlood flood-opacity="0" result="BackgroundImageFix"/><feColorMatrix in="SourceAlpha" values="0 0 0 0 0 0 0 0 0 0 0 0 0 0 0 0 0 0 127 0"/><feOffset dx="-2" dy="2"/><feGaussianBlur stdDeviation="2"/><feColorMatrix values="0 0 0 0 0 0 0 0 0 0.509804 0 0 0 0 0.937255 0 0 0 0.3 0"/><feBlend in2="BackgroundImageFix" result="effect1_dropShadow"/><feBlend in="SourceGraphic" in2="effect1_dropShadow" result="shape"/></filter><filter id="g" x="756.512" y="110.369" width="80.92" height="78.265" filterUnits="userSpaceOnUse" color-interpolation-filters="sRGB"><feFlood flood-opacity="0" result="BackgroundImageFix"/><feGaussianBlur in="BackgroundImage" stdDeviation="2.5"/><feComposite in2="SourceAlpha" operator="in" result="effect1_backgroundBlur"/><feColorMatrix in="SourceAlpha" values="0 0 0 0 0 0 0 0 0 0 0 0 0 0 0 0 0 0 127 0"/><feOffset dx="-2" dy="2"/><feGaussianBlur stdDeviation="2"/><feColorMatrix values="0 0 0 0 0 0 0 0 0 0.509804 0 0 0 0 0.937255 0 0 0 0.1 0"/><feBlend in2="effect1_backgroundBlur" result="effect2_dropShadow"/><feBlend in="SourceGraphic" in2="effect2_dropShadow" result="shape"/></filter><filter id="h" x="822.707" y="84.263" width="273.163" height="204.734" filterUnits="userSpaceOnUse" color-interpolation-filters="sRGB"><feFlood flood-opacity="0" result="BackgroundImageFix"/><feGaussianBlur in="BackgroundImage" stdDeviation="2.5"/><feComposite in2="SourceAlpha" operator="in" result="effect1_backgroundBlur"/><feColorMatrix in="SourceAlpha" values="0 0 0 0 0 0 0 0 0 0 0 0 0 0 0 0 0 0 127 0"/><feOffset dx="-2" dy="2"/><feGaussianBlur stdDeviation="2.5"/><feColorMatrix values="0 0 0 0 0 0 0 0 0 0.509804 0 0 0 0 0.937255 0 0 0 0.2 0"/><feBlend in2="effect1_backgroundBlur" result="effect2_dropShadow"/><feBlend in="SourceGraphic" in2="effect2_dropShadow" result="shape"/></filter><filter id="i" x="926.672" y="143.942" width="61.781" height="49.526" filterUnits="userSpaceOnUse" color-interpolation-filters="sRGB"><feFlood flood-opacity="0" result="BackgroundImageFix"/><feColorMatrix in="SourceAlpha" values="0 0 0 0 0 0 0 0 0 0 0 0 0 0 0 0 0 0 127 0"/><feOffset dx="-2" dy="2"/><feGaussianBlur stdDeviation="2"/><feColorMatrix values="0 0 0 0 0 0 0 0 0 0.490196 0 0 0 0 0.898039 0 0 0 0.3 0"/><feBlend in2="BackgroundImageFix" result="effect1_dropShadow"/><feBlend in="SourceGraphic" in2="effect1_dropShadow" result="shape"/></filter><filter id="j" x="857.973" y="171.845" width="61.781" height="49.526" filterUnits="userSpaceOnUse" color-interpolation-filters="sRGB"><feFlood flood-opacity="0" result="BackgroundImageFix"/><feColorMatrix in="SourceAlpha" values="0 0 0 0 0 0 0 0 0 0 0 0 0 0 0 0 0 0 127 0"/><feOffset dx="-2" dy="2"/><feGaussianBlur stdDeviation="2"/><feColorMatrix values="0 0 0 0 0 0 0 0 0 0.490196 0 0 0 0 0.898039 0 0 0 0.3 0"/><feBlend in2="BackgroundImageFix" result="effect1_dropShadow"/><feBlend in="SourceGraphic" in2="effect1_dropShadow" result="shape"/></filter><filter id="k" x="902.855" y="183.824" width="61.781" height="49.526" filterUnits="userSpaceOnUse" color-interpolation-filters="sRGB"><feFlood flood-opacity="0" result="BackgroundImageFix"/><feColorMatrix in="SourceAlpha" values="0 0 0 0 0 0 0 0 0 0 0 0 0 0 0 0 0 0 127 0"/><feOffset dx="-2" dy="2"/><feGaussianBlur stdDeviation="2"/><feColorMatrix values="0 0 0 0 0 0 0 0 0 0.490196 0 0 0 0 0.898039 0 0 0 0.3 0"/><feBlend in2="BackgroundImageFix" result="effect1_dropShadow"/><feBlend in="SourceGraphic" in2="effect1_dropShadow" result="shape"/></filter><filter id="l" x="878.602" y="124.133" width="73.781" height="61.526" filterUnits="userSpaceOnUse" color-interpolation-filters="sRGB"><feFlood flood-opacity="0" result="BackgroundImageFix"/><feGaussianBlur in="BackgroundImage" stdDeviation="5"/><feComposite in2="SourceAlpha" operator="in" result="effect1_backgroundBlur"/><feColorMatrix in="SourceAlpha" values="0 0 0 0 0 0 0 0 0 0 0 0 0 0 0 0 0 0 127 0"/><feOffset dx="-2" dy="2"/><feGaussianBlur stdDeviation="2"/><feColorMatrix values="0 0 0 0 0 0 0 0 0 0.490196 0 0 0 0 0.898039 0 0 0 0.2 0"/><feBlend in2="effect1_backgroundBlur" result="effect2_dropShadow"/><feBlend in="SourceGraphic" in2="effect2_dropShadow" result="shape"/></filter><filter id="m" x="899.197" y="144.879" width="27.62" height="23.879" filterUnits="userSpaceOnUse" color-interpolation-filters="sRGB"><feFlood flood-opacity="0" result="BackgroundImageFix"/><feColorMatrix in="SourceAlpha" values="0 0 0 0 0 0 0 0 0 0 0 0 0 0 0 0 0 0 127 0"/><feOffset dx="-1.281" dy="1.281"/><feGaussianBlur stdDeviation="1.281"/><feColorMatrix values="0 0 0 0 0 0 0 0 0 0.509804 0 0 0 0 0.937255 0 0 0 0.1 0"/><feBlend in2="BackgroundImageFix" result="effect1_dropShadow"/><feBlend in="SourceGraphic" in2="effect1_dropShadow" result="shape"/></filter><filter id="n" x="804.864" y="31.547" width="13.308" height="14.112" filterUnits="userSpaceOnUse" color-interpolation-filters="sRGB"><feFlood flood-opacity="0" result="BackgroundImageFix"/><feColorMatrix in="SourceAlpha" values="0 0 0 0 0 0 0 0 0 0 0 0 0 0 0 0 0 0 127 0"/><feOffset dx=".933" dy="1.867"/><feGaussianBlur stdDeviation="1.167"/><feColorMatrix values="0 0 0 0 0 0 0 0 0 0.435294 0 0 0 0 0.8 0 0 0 0.2 0"/><feBlend in2="BackgroundImageFix" result="effect1_dropShadow"/><feBlend in="SourceGraphic" in2="effect1_dropShadow" result="shape"/></filter><filter id="o" x="1016.08" y="26.423" width="165.28" height="147.153" filterUnits="userSpaceOnUse" color-interpolation-filters="sRGB"><feFlood flood-opacity="0" result="BackgroundImageFix"/><feGaussianBlur in="BackgroundImage" stdDeviation="4.5"/><feComposite in2="SourceAlpha" operator="in" result="effect1_backgroundBlur"/><feColorMatrix in="SourceAlpha" values="0 0 0 0 0 0 0 0 0 0 0 0 0 0 0 0 0 0 127 0"/><feOffset dx="2" dy="2"/><feGaussianBlur stdDeviation="2.5"/><feColorMatrix values="0 0 0 0 0 0 0 0 0 0.509804 0 0 0 0 0.937255 0 0 0 0.3 0"/><feBlend in2="effect1_backgroundBlur" result="effect2_dropShadow"/><feBlend in="SourceGraphic" in2="effect2_dropShadow" result="shape"/></filter><filter id="p" x="1088.27" y="50.156" width="94.181" height="45.629" filterUnits="userSpaceOnUse" color-interpolation-filters="sRGB"><feFlood flood-opacity="0" result="BackgroundImageFix"/><feGaussianBlur in="BackgroundImage" stdDeviation="2.5"/><feComposite in2="SourceAlpha" operator="in" result="effect1_backgroundBlur"/><feColorMatrix in="SourceAlpha" values="0 0 0 0 0 0 0 0 0 0 0 0 0 0 0 0 0 0 127 0"/><feOffset dx="-2" dy="2"/><feGaussianBlur stdDeviation="2"/><feColorMatrix values="0 0 0 0 0 0 0 0 0 0.490196 0 0 0 0 0.898039 0 0 0 0.1 0"/><feBlend in2="effect1_backgroundBlur" result="effect2_dropShadow"/><feBlend in="SourceGraphic" in2="effect2_dropShadow" result="shape"/></filter><filter id="r" x="1054.96" y="80.742" width="74.823" height="40.384" filterUnits="userSpaceOnUse" color-interpolation-filters="sRGB"><feFlood flood-opacity="0" result="BackgroundImageFix"/><feGaussianBlur in="BackgroundImage" stdDeviation="2.5"/><feComposite in2="SourceAlpha" operator="in" result="effect1_backgroundBlur"/><feColorMatrix in="SourceAlpha" values="0 0 0 0 0 0 0 0 0 0 0 0 0 0 0 0 0 0 127 0"/><feOffset dx="-2" dy="2"/><feGaussianBlur stdDeviation="2"/><feColorMatrix values="0 0 0 0 0 0 0 0 0 0.490196 0 0 0 0 0.898039 0 0 0 0.1 0"/><feBlend in2="effect1_backgroundBlur" result="effect2_dropShadow"/><feBlend in="SourceGraphic" in2="effect2_dropShadow" result="shape"/></filter><filter id="t" x="59.055" y="112.498" width="225.921" height="199.005" filterUnits="userSpaceOnUse" color-interpolation-filters="sRGB"><feFlood flood-opacity="0" result="BackgroundImageFix"/><feColorMatrix in="SourceAlpha" values="0 0 0 0 0 0 0 0 0 0 0 0 0 0 0 0 0 0 127 0"/><feOffset dx="-5" dy="5"/><feGaussianBlur stdDeviation="5"/><feColorMatrix values="0 0 0 0 0 0 0 0 0 0.435294 0 0 0 0 0.8 0 0 0 0.1 0"/><feBlend in2="BackgroundImageFix" result="effect1_dropShadow"/><feBlend in="SourceGraphic" in2="effect1_dropShadow" result="shape"/></filter><filter id="v" x="181.59" y="76.377" width="216.377" height="189.28" filterUnits="userSpaceOnUse" color-interpolation-filters="sRGB"><feFlood flood-opacity="0" result="BackgroundImageFix"/><feGaussianBlur in="BackgroundImage" stdDeviation="2"/><feComposite in2="SourceAlpha" operator="in" result="effect1_backgroundBlur"/><feColorMatrix in="SourceAlpha" values="0 0 0 0 0 0 0 0 0 0 0 0 0 0 0 0 0 0 127 0"/><feOffset dx="-2" dy="2"/><feGaussianBlur stdDeviation="2"/><feColorMatrix values="0 0 0 0 0 0 0 0 0 0.435294 0 0 0 0 0.8 0 0 0 0.1 0"/><feBlend in2="effect1_backgroundBlur" result="effect2_dropShadow"/><feBlend in="SourceGraphic" in2="effect2_dropShadow" result="shape"/></filter><filter id="w" x="149.281" y="89.377" width="204.766" height="191.28" filterUnits="userSpaceOnUse" color-interpolation-filters="sRGB"><feFlood flood-opacity="0" result="BackgroundImageFix"/><feGaussianBlur in="BackgroundImage" stdDeviation="2.5"/><feComposite in2="SourceAlpha" operator="in" result="effect1_backgroundBlur"/><feColorMatrix in="SourceAlpha" values="0 0 0 0 0 0 0 0 0 0 0 0 0 0 0 0 0 0 127 0"/><feOffset dx="-2" dy="2"/><feGaussianBlur stdDeviation="2.5"/><feColorMatrix values="0 0 0 0 0 0 0 0 0 0.509804 0 0 0 0 0.937255 0 0 0 0.2 0"/><feBlend in2="effect1_backgroundBlur" result="effect2_dropShadow"/><feBlend in="SourceGraphic" in2="effect2_dropShadow" result="shape"/></filter><filter id="x" x="310.127" y="110.872" width="47.947" height="55.199" filterUnits="userSpaceOnUse" color-interpolation-filters="sRGB"><feFlood flood-opacity="0" result="BackgroundImageFix"/><feGaussianBlur in="BackgroundImage" stdDeviation="5"/><feComposite in2="SourceAlpha" operator="in" result="effect1_backgroundBlur"/><feBlend in="SourceGraphic" in2="effect1_backgroundBlur" result="shape"/></filter><filter id="y" x="203.443" y="146.31" width="109.228" height="57.578" filterUnits="userSpaceOnUse" color-interpolation-filters="sRGB"><feFlood flood-opacity="0" result="BackgroundImageFix"/><feColorMatrix in="SourceAlpha" values="0 0 0 0 0 0 0 0 0 0 0 0 0 0 0 0 0 0 127 0"/><feOffset dx="-1" dy="1"/><feGaussianBlur stdDeviation="2"/><feColorMatrix values="0 0 0 0 0 0 0 0 0 0.509804 0 0 0 0 0.937255 0 0 0 0.1 0"/><feBlend in2="BackgroundImageFix" result="effect1_dropShadow"/><feBlend in="SourceGraphic" in2="effect1_dropShadow" result="shape"/></filter><filter id="z" x="323.51" y="-98.485" width="248.889" height="208.208" filterUnits="userSpaceOnUse" color-interpolation-filters="sRGB"><feFlood flood-opacity="0" result="BackgroundImageFix"/><feColorMatrix in="SourceAlpha" values="0 0 0 0 0 0 0 0 0 0 0 0 0 0 0 0 0 0 127 0"/><feOffset dx="-5" dy="5"/><feGaussianBlur stdDeviation="10"/><feColorMatrix values="0 0 0 0 0 0 0 0 0 0.435294 0 0 0 0 0.8 0 0 0 0.1 0"/><feBlend in2="BackgroundImageFix" result="effect1_dropShadow"/><feBlend in="SourceGraphic" in2="effect1_dropShadow" result="shape"/></filter><filter id="B" x="234.51" y="-135.485" width="228.889" height="188.208" filterUnits="userSpaceOnUse" color-interpolation-filters="sRGB"><feFlood flood-opacity="0" result="BackgroundImageFix"/><feGaussianBlur in="BackgroundImage" stdDeviation="2.5"/><feComposite in2="SourceAlpha" operator="in" result="effect1_backgroundBlur"/><feColorMatrix in="SourceAlpha" values="0 0 0 0 0 0 0 0 0 0 0 0 0 0 0 0 0 0 127 0"/><feOffset dx="-5" dy="5"/><feGaussianBlur stdDeviation="5"/><feColorMatrix values="0 0 0 0 0 0 0 0 0 0.435294 0 0 0 0 0.8 0 0 0 0.2 0"/><feBlend in2="effect1_backgroundBlur" result="effect2_dropShadow"/><feBlend in="SourceGraphic" in2="effect2_dropShadow" result="shape"/></filter><linearGradient id="b" x1="198.965" x2="-44.928" y2="106.103" gradientUnits="userSpaceOnUse"><stop stop-color="#fff" stop-opacity=".05"/><stop offset="1" stop-color="#fff" stop-opacity=".5"/></linearGradient><linearGradient id="d" x1="321.048" x2="-28.607" y2="203.442" gradientUnits="userSpaceOnUse"><stop stop-color="#fff" stop-opacity=".05"/><stop offset="1" stop-color="#fff" stop-opacity=".5"/></linearGradient><linearGradient id="u" x1="123.334" x2="-38.547" y2="53.854" gradientUnits="userSpaceOnUse"><stop stop-color="#fff" stop-opacity=".05"/><stop offset="1" stop-color="#fff" stop-opacity=".5"/></linearGradient><linearGradient id="A" x1="134.291" x2="-34.45" y2="67.535" gradientUnits="userSpaceOnUse"><stop stop-color="#fff" stop-opacity=".05"/><stop offset="1" stop-color="#fff" stop-opacity=".5"/></linearGradient><linearGradient id="C" x1="134.291" x2="-34.45" y2="67.535" gradientUnits="userSpaceOnUse"><stop stop-color="#fff" stop-opacity=".05"/><stop offset="1" stop-color="#fff" stop-opacity=".5"/></linearGradient></defs></svg>